<svg id="Layer_1" data-name="Layer 1" xmlns="http://www.w3.org/2000/svg" width="103.96" height="35.28" viewBox="0 0 103.96 35.28"><path d="M1.69,7.69A2.31,2.31,0,0,1,2.12,8.8a1.41,1.41,0,0,1-.19.74.6.6,0,0,1-.53.32c-.4,0-.74-.34-1-1A6,6,0,0,1,0,6.62,4.41,4.41,0,0,1,1.28,3.53,4.27,4.27,0,0,1,4.54,2.16a2.14,2.14,0,0,1,2,1.28,6.11,6.11,0,0,1,.67,2.9c0,1.08,0,2.09-.09,3S7,11.06,7,11.57,6.8,12.91,6.66,14s-.24,1.89-.29,2.32q2.88,0,6.05-2.91a49.29,49.29,0,0,1,1.21-8.12,14.52,14.52,0,0,1,1.56-4.12A2.18,2.18,0,0,1,16.9,0a1.79,1.79,0,0,1,1.51.83,3.27,3.27,0,0,1,.6,2Q19,7.06,15.23,12c-.15,1.89-.22,3.64-.22,5.24a15.76,15.76,0,0,0,.7,4.64,20.34,20.34,0,0,1,.71,2.52c0,.18-.14.32-.4.43a2.2,2.2,0,0,1-.86.16,3.17,3.17,0,0,1-2.06-.64,4.2,4.2,0,0,1-.64-2.2,26.18,26.18,0,0,1-.26-3.51c0-1.09,0-2.27.11-3.55a10.17,10.17,0,0,1-6.08,2.85c0,.33-.05.89-.07,1.67S6.1,21,6.05,21.33a9,9,0,0,1-.29,1.28A1.63,1.63,0,0,1,4,23.94c-.55,0-.83-.47-.83-1.42a47.66,47.66,0,0,1,.44-4.95A2.43,2.43,0,0,1,2,15.16,3.56,3.56,0,0,1,2.66,13a2,2,0,0,1,1.59-.88c.21-2.21.32-3.91.32-5.11,0-2.16-.33-3.24-1-3.24a2.05,2.05,0,0,0-2.3,2.34A2.92,2.92,0,0,0,1.69,7.69Zm2.45,5.59a1.13,1.13,0,0,0-.5,1,1.66,1.66,0,0,0,.28,1ZM17.86,3.42a2.86,2.86,0,0,0-.17-1c-.1-.3-.24-.45-.41-.45q-1,0-1.84,7.81Q17.86,6.12,17.86,3.42Z"/><path d="M21,23.94a3.31,3.31,0,0,1-2.12-.58c-.17-.16-.25-.76-.25-1.8s.08-2.75.23-5.16a21.53,21.53,0,0,1,.42-3.91,7,7,0,0,1,1.11-1.08,2.69,2.69,0,0,1,1.46-.79c.35,0,.52.46.52,1.37a8.37,8.37,0,0,1-.2,1.4,5.39,5.39,0,0,1-.45,1.51c-.31.8-.46,2.87-.46,6.23,0,.65.07,1,.21,1,.41,0,1-.53,1.69-1.53a22.25,22.25,0,0,0,2.15-3.83c.7-1.56,1.14-2.34,1.29-2.34s.24.1.24.29a8.69,8.69,0,0,1-1.05,3.2Q23,23.94,21,23.94ZM20,6.16A1.35,1.35,0,0,1,20.66,5a2.29,2.29,0,0,1,1.23-.47c.65,0,1,.37,1,1.12a3.19,3.19,0,0,1-.58,1.92,1.86,1.86,0,0,1-1.62.81C20.21,8.42,20,7.67,20,6.16Z"/><path d="M26.06,12.56a12.91,12.91,0,0,1,1.26-1.2,2.5,2.5,0,0,1,1.37-.74c.34,0,.51.47.51,1.42a5.74,5.74,0,0,1-.76,2.79,12.31,12.31,0,0,0-.22,1.87,18.29,18.29,0,0,1,2.09-4.28A3.07,3.07,0,0,1,32.85,11a3.33,3.33,0,0,1,2.61,1.35,6.65,6.65,0,0,1,1.12,4.25,8.47,8.47,0,0,1-1.64,5.13,5.1,5.1,0,0,1-4.3,2.23,4.78,4.78,0,0,1-2.78-1,52,52,0,0,1-.79,10.48,3.15,3.15,0,0,1-.95,1.1,2.58,2.58,0,0,1-1.3.77c-.27,0-.47-.19-.59-.58a3.59,3.59,0,0,1-.18-1.08,39.66,39.66,0,0,1,1.51-9.54q.26-3.37.34-7.41C26,14,26,12.61,26.06,12.56Zm4.79,10.08A3,3,0,0,0,33,21.19a5.81,5.81,0,0,0,1.12-3.6,8.13,8.13,0,0,0-.6-3.42c-.39-.86-.93-1.28-1.6-1.28q-1.72,0-3.92,7.16c-.05.67-.07,1.2-.07,1.59A3.94,3.94,0,0,0,30.85,22.64Z"/><path d="M43.23,12.74l.08-.54c0-.43-.25-.64-.74-.64a1.83,1.83,0,0,0-1.42.95,3,3,0,0,0-.69,1.57,6.05,6.05,0,0,0,.07,1,3.61,3.61,0,0,0,.17.59,3.16,3.16,0,0,0,.3.56c.15.22.25.37.33.47l.39.5a4.58,4.58,0,0,0,.36.47Q44,16.1,46.55,14.18a.51.51,0,0,1,.32-.1q.36,0,.36.39a.69.69,0,0,1-.32.61,42.59,42.59,0,0,0-4.36,3.21,4.35,4.35,0,0,1,.79,2.52,3.11,3.11,0,0,1-1,2.34,3.77,3.77,0,0,1-2.67,1c-1.08,0-1.62-.52-1.62-1.55,0-.74.8-1.88,2.38-3.42-.12-.14-.34-.38-.65-.7s-.54-.58-.7-.77-.34-.45-.56-.76A3.57,3.57,0,0,1,37.91,15a4.54,4.54,0,0,1,1.36-3.44,4.19,4.19,0,0,1,2.92-1.32,2.07,2.07,0,0,1,1.51.53,1.48,1.48,0,0,1,.54,1.06c0,.81-.19,1.22-.57,1.22S43.23,12.94,43.23,12.74Zm-2.3,7.1a3.93,3.93,0,0,0-1.44,2.32.79.79,0,0,0,.9.88,1.12,1.12,0,0,0,.9-.43C41.82,21.89,41.7,21,40.93,19.84Z"/><path d="M53.46,17.89q-2.85,6-4.81,6.05c-1.31,0-2.07-.16-2.3-.47A7.47,7.47,0,0,1,46,20.38c0-1.76.16-4.29.5-7.6-1.2-.24-1.84-.73-1.91-1.48,0-.38.25-.57.76-.57a2.83,2.83,0,0,1,1.33.29q.33-2.6.76-5.26a2.46,2.46,0,0,1,.68-1.3,1.63,1.63,0,0,1,1.12-.61c.31,0,.46.49.46,1.48,0,.45-.16,2.55-.5,6.3a9.13,9.13,0,0,0,2.14-.72,6,6,0,0,1,1.39-.54c.43,0,.65.13.65.39s-.42.57-1.34,1a13.6,13.6,0,0,1-2.95,1q-.43,5.25-.43,8c0,1,.14,1.44.43,1.44s1-.52,1.73-1.51A21.53,21.53,0,0,0,53,16.76c.71-1.57,1.14-2.36,1.3-2.36s.23.1.23.29A8.82,8.82,0,0,1,53.46,17.89Z"/><path d="M55,23.94a3.32,3.32,0,0,1-2.13-.58c-.17-.16-.25-.76-.25-1.8s.08-2.75.23-5.16a21.53,21.53,0,0,1,.42-3.91,7,7,0,0,1,1.11-1.08,2.69,2.69,0,0,1,1.46-.79c.35,0,.52.46.52,1.37a9.17,9.17,0,0,1-.19,1.4,6.17,6.17,0,0,1-.45,1.51c-.32.8-.47,2.87-.47,6.23,0,.65.07,1,.21,1,.41,0,1-.53,1.7-1.53a22.27,22.27,0,0,0,2.14-3.83q1.06-2.34,1.29-2.34c.16,0,.24.1.24.29a8.69,8.69,0,0,1-1.05,3.2C57.9,21.92,56.3,23.94,55,23.94ZM54,6.16A1.33,1.33,0,0,1,54.65,5a2.24,2.24,0,0,1,1.22-.47c.65,0,1,.37,1,1.12a3.25,3.25,0,0,1-.57,1.92,1.89,1.89,0,0,1-1.62.81C54.19,8.42,54,7.67,54,6.16Z"/><path d="M62.06,14.36l2-.21a.64.64,0,0,1,.51.32,1.27,1.27,0,0,1,.21.69c0,.24-.08,1.05-.23,2.44a30.69,30.69,0,0,0-.24,3.3c0,.8.08,1.2.22,1.2.41,0,1-.53,1.69-1.53a21.62,21.62,0,0,0,2.14-3.83c.71-1.56,1.14-2.34,1.3-2.34s.23.1.23.29a8.62,8.62,0,0,1-1,3.2c-1.9,4-3.49,6.05-4.79,6.05a3.31,3.31,0,0,1-2.12-.58c-.17-.16-.25-1.21-.25-3.13a17.33,17.33,0,0,1,.61-4.93A3.16,3.16,0,0,1,59.36,14a2.83,2.83,0,0,1-.43-1.55,3,3,0,0,1,.36-1.51,1.13,1.13,0,0,1,1-.65,1.56,1.56,0,0,1,1.22.7,2.47,2.47,0,0,1,.56,1.57,3.41,3.41,0,0,1-.51,1.73A.84.84,0,0,0,62.06,14.36Z"/><path d="M71.24,14.36l2-.21a.64.64,0,0,1,.51.32,1.27,1.27,0,0,1,.21.69c0,.24-.08,1.05-.23,2.44a30.69,30.69,0,0,0-.24,3.3c0,.8.08,1.2.22,1.2.41,0,1-.53,1.69-1.53a21.62,21.62,0,0,0,2.14-3.83c.71-1.56,1.14-2.34,1.3-2.34s.23.1.23.29a8.62,8.62,0,0,1-1,3.2c-1.9,4-3.49,6.05-4.79,6.05a3.31,3.31,0,0,1-2.12-.58c-.17-.16-.25-1.21-.25-3.13a17.33,17.33,0,0,1,.61-4.93A3.16,3.16,0,0,1,68.54,14a2.83,2.83,0,0,1-.43-1.55,3,3,0,0,1,.36-1.51,1.13,1.13,0,0,1,1-.65,1.56,1.56,0,0,1,1.22.7,2.47,2.47,0,0,1,.56,1.57,3.41,3.41,0,0,1-.51,1.73A.84.84,0,0,0,71.24,14.36Z"/><path d="M81.68,23.94a3.84,3.84,0,0,1-3.2-1.53,5.53,5.53,0,0,1-1.19-3.47q0-3.93,1.65-5.94a5.3,5.3,0,0,1,4.29-2,3,3,0,0,1,2,.67A2.26,2.26,0,0,1,86,13.46a4.48,4.48,0,0,1-1.82,3.62,7.25,7.25,0,0,1-4.45,1.53,4.6,4.6,0,0,0,1,2.43,2.35,2.35,0,0,0,1.89,1,3.75,3.75,0,0,0,1.94-.51,5.47,5.47,0,0,0,1.59-1.44,21.35,21.35,0,0,0,2.59-4.5q.29-.64.45-.93c.1-.19.23-.29.36-.29s.2.1.2.29c0,1.2-.74,3-2.2,5.4C86,22.66,84,23.94,81.68,23.94Zm-1.91-6.19a5.6,5.6,0,0,0,3.12-1.37,3.59,3.59,0,0,0,1-2.63q0-1.62-1-1.62c-.84,0-1.54.58-2.12,1.75A9.28,9.28,0,0,0,79.77,17.75Z"/><path d="M98.1,23.94a3,3,0,0,1-1.91-.54,2.46,2.46,0,0,1-.29-1.51c0-.82,0-1.89.11-3.21a16.12,16.12,0,0,1-2,3.93,3.06,3.06,0,0,1-2.54,1.33,3.2,3.2,0,0,1-2.59-1.33,6.82,6.82,0,0,1-1.06-4.25,8.44,8.44,0,0,1,1.64-5.15A5.07,5.07,0,0,1,93.78,11a4.7,4.7,0,0,1,2.7,1q.57-7,1-7.92a5.57,5.57,0,0,1,1-1.15,2.23,2.23,0,0,1,1.35-.76c.36,0,.54.56.54,1.69a14.24,14.24,0,0,1-.36,3.42C99.43,9.74,99,11.32,98.85,12a73.33,73.33,0,0,0-.5,9.14c0,.65.07,1,.21,1,.44,0,1-.52,1.73-1.51a21.51,21.51,0,0,0,2.15-3.83c.7-1.57,1.13-2.36,1.29-2.36s.23.1.23.29a8.62,8.62,0,0,1-1,3.2C101,21.92,99.42,23.94,98.1,23.94ZM93.56,12.28c-.65,0-1.29.51-1.94,1.54a6.61,6.61,0,0,0-1,3.59,9,9,0,0,0,.52,3.33c.34.86.78,1.29,1.31,1.29q1.62,0,3.71-6.48.18-2,.18-2.34A4.07,4.07,0,0,0,93.56,12.28Z"/></svg>